<svg version="1.2" xmlns="http://www.w3.org/2000/svg" viewBox="0 0 188 70" width="188" height="70">
	<defs>
		<clipPath clipPathUnits="userSpaceOnUse" id="cp1">
			<path d="m152.34 0.61h35v69h-35z"/>
		</clipPath>
		<clipPath clipPathUnits="userSpaceOnUse" id="cp2">
			<path d="m83.67 27h61.33v49.33h-61.33z"/>
		</clipPath>
	</defs>
	<style>
		.s0 { fill: none;stroke: #1cd4c2;stroke-width: 8 } 
		.s1 { fill: none;stroke: #f1f2f2;stroke-width: 3 } 
		.s2 { fill: #ffffff } 
		.s3 { fill: #1cd4c2 } 
	</style>
	<path class="s0" d="m0.93 52.21h73.59"/>
	<path class="s1" d="m8.42 35.28l152.54-0.52"/>
	<g id="Clip-Path" clip-path="url(#cp1)">
		<g>
			<path class="s2" d="m187.34 53.65v-36.74c0-8.96-7.34-16.3-16.3-16.3h-2.02c-9 0-16.35 7.34-16.35 16.3v36.69c0 8.96 7.35 16.31 16.31 16.31h2.02c9 0.04 16.34-7.31 16.34-16.26z"/>
		</g>
	</g>
	<path class="s3" d="m170.01 65.91q-1.36 0-2.69-0.27-1.33-0.26-2.59-0.78-1.25-0.52-2.38-1.28-1.13-0.75-2.09-1.71-0.96-0.96-1.71-2.09-0.76-1.13-1.28-2.38-0.51-1.26-0.78-2.59-0.27-1.33-0.27-2.69 0-1.36 0.27-2.69 0.27-1.33 0.78-2.59 0.52-1.25 1.28-2.38 0.75-1.13 1.71-2.09 0.96-0.95 2.09-1.71 1.13-0.76 2.38-1.27 1.26-0.53 2.59-0.79 1.33-0.27 2.69-0.27 1.36 0 2.69 0.27 1.33 0.26 2.59 0.79 1.25 0.51 2.38 1.27 1.13 0.76 2.09 1.71 0.96 0.96 1.71 2.09 0.76 1.13 1.27 2.38 0.53 1.26 0.79 2.59 0.27 1.33 0.27 2.69 0 1.36-0.27 2.69-0.26 1.33-0.79 2.59-0.51 1.25-1.27 2.38-0.75 1.13-1.71 2.09-0.96 0.96-2.09 1.71-1.13 0.76-2.38 1.28-1.26 0.52-2.59 0.78-1.33 0.27-2.69 0.27z"/>
	<g>
		<g>
			<g>
				<path class="s2" d="m8.6 1.84h9.82q3.95 0 6.43 2.13 2.5 2.11 2.5 6.02 0 3.04-1.52 5.08-1.5 2.05-4.1 2.88l9.44 11.33h-7.94l-8.38-10.83v10.83h-6.25zm6.25 12.17h0.73q0.85 0 1.46-0.02 0.6-0.04 1.36-0.23 0.76-0.21 1.22-0.57 0.48-0.37 0.82-1.06 0.33-0.7 0.33-1.71 0-1-0.33-1.68-0.34-0.71-0.82-1.07-0.46-0.37-1.22-0.56-0.76-0.2-1.36-0.23-0.61-0.04-1.46-0.04h-0.73z"/>
			</g>
		</g>
	</g>
	<g>
		<g>
			<g>
				<path class="s2" d="m49.66 21.57h-12.37q-0.01 1.8 1.16 2.67 1.17 0.86 2.54 0.85 1.42 0 2.25-0.37 0.83-0.4 1.9-1.52l4.25 2.12q-2.65 4.46-8.83 4.46-3.86 0-6.63-2.65-2.75-2.64-2.75-6.35 0-3.72 2.75-6.4 2.77-2.66 6.63-2.66 4.03 0 6.58 2.35 2.56 2.34 2.56 6.69 0 0.61-0.04 0.81zm-12.21-3.27h6.5q-0.21-1.33-1.06-2.04-0.84-0.71-2.17-0.71-1.46 0-2.33 0.77-0.86 0.75-0.94 1.98z"/>
			</g>
		</g>
	</g>
	<g>
		<g>
			<g>
				<path class="s2" d="m59.88 11.72q1.45 0 2.87 0.33 1.44 0.34 2.15 0.67l0.69 0.33-1.92 3.86q-2-1.07-3.79-1.07-1 0-1.42 0.23-0.42 0.21-0.42 0.81 0 0.13 0.02 0.28 0.04 0.12 0.15 0.25 0.1 0.1 0.19 0.18 0.08 0.09 0.27 0.19 0.2 0.11 0.31 0.15 0.13 0.04 0.38 0.14 0.26 0.11 0.39 0.17 0.15 0.04 0.46 0.14 0.33 0.09 0.5 0.13 1.02 0.29 1.77 0.67 0.77 0.36 1.63 1 0.85 0.62 1.31 1.6 0.48 0.96 0.48 2.19 0 5.81-8.09 5.81-1.83 0-3.47-0.56-1.65-0.56-2.38-1.13l-0.73-0.6 2.4-4.02q0.25 0.23 0.68 0.54 0.44 0.31 1.57 0.87 1.12 0.55 1.96 0.55 1.83 0 1.83-1.23 0-0.57-0.48-0.88-0.46-0.33-1.58-0.73-1.11-0.39-1.73-0.73-1.59-0.82-2.52-1.87-0.94-1.04-0.94-2.77 0-2.6 2-4.04 2.02-1.46 5.46-1.46z"/>
			</g>
		</g>
	</g>
	<g>
		<g>
			<g>
				<path class="s2" d="m69.82 12.22v-6.36h5.87v6.36h3.59v4.5h-3.59v5.41q0 2.36 1.34 2.36 0.33 0 0.69-0.13 0.37-0.14 0.58-0.27l0.19-0.12 1.45 4.75q-1.89 1.06-4.31 1.06-1.67 0-2.87-0.58-1.19-0.58-1.82-1.57-0.61-0.97-0.87-2.06-0.25-1.08-0.25-2.31v-6.54h-2.46v-4.5z"/>
			</g>
		</g>
	</g>
	<g>
		<g>
			<g>
				<path class="s2" d="m83.12 27.18q-2.4-2.63-2.4-6.42 0-3.79 2.4-6.42 2.39-2.62 6.08-2.62 3.38 0 5.59 2.12v-1.62h5.87v17.06h-5.81v-1.94h-0.06q-2.21 2.44-5.59 2.44-3.69 0-6.08-2.6zm5-9.3q-1.15 1.13-1.15 2.9 0 1.75 1.09 2.88 1.1 1.1 2.89 1.1 1.73 0 2.84-1.13 1.12-1.14 1.12-2.87 0-1.75-1.14-2.88-1.15-1.14-2.82-1.14-1.69 0-2.83 1.14z"/>
			</g>
		</g>
	</g>
	<g>
		<g>
			<g>
				<path class="s2" d="m104.66 29.28v-17.06h5.88v2.46h0.06q0.08-0.13 0.23-0.32 0.14-0.2 0.65-0.7 0.5-0.5 1.06-0.9 0.56-0.39 1.46-0.71 0.89-0.33 1.83-0.33 0.96 0 1.9 0.27 0.93 0.27 1.35 0.54l0.48 0.25-2.46 5q-1.11-0.94-3.06-0.94-1.07 0-1.84 0.48-0.77 0.46-1.08 1.13-0.31 0.67-0.46 1.12-0.12 0.46-0.12 0.73v8.98z"/>
			</g>
		</g>
	</g>
	<g>
		<g>
			<g>
				<path class="s2" d="m122.22 12.22v-6.36h5.88v6.36h3.58v4.5h-3.58v5.41q0 2.36 1.33 2.36 0.33 0 0.69-0.13 0.37-0.14 0.58-0.27l0.19-0.12 1.46 4.75q-1.9 1.06-4.32 1.06-1.67 0-2.87-0.58-1.19-0.58-1.81-1.57-0.61-0.97-0.88-2.06-0.25-1.08-0.25-2.31v-6.54h-2.46v-4.5z"/>
			</g>
		</g>
	</g>
	<g>
		<g id="Clip-Path" clip-path="url(#cp2)">
			<g>
				<g>
					<g>
						<g>
							<path class="s2" d="m88.82 63.99q-1.17-0.01-1.85-0.59-0.67-0.6-0.67-1.73 0-0.62 0.13-1.52 0.14-0.89 0.41-2.31l2.03-9.69q0.26-1.33 0.45-2.41 0.21-1.09 0.44-2.46 0.25-1.4-1.12-1.9l-0.59-0.21 0.07-0.35 6.87-1.96 0.21 0.25-4.31 20.35q-0.11 0.53-0.19 0.94-0.06 0.4-0.06 0.67-0.01 0.77 0.66 0.77 0.89 0 2.57-1.56l0.35 0.27q-0.88 1.29-2.21 2.37-1.33 1.07-3.19 1.07z"/>
						</g>
					</g>
				</g>
				<g>
					<g>
						<g>
							<path class="s2" d="m99.77 63.99q-0.98-0.01-1.85-0.46-0.88-0.46-1.42-1.5-0.55-1.06-0.54-2.77-0.01-1.88 0.73-3.75 0.72-1.88 1.96-3.57 1.22-1.7 2.72-3.02 1.52-1.33 3.13-2.1 1.62-0.77 3.06-0.77 0.7 0 1.31 0.27 0.63 0.27 1.19 0.71l2.84-1.09 0.29 0.19-3.07 13.44q-0.25 0.98-0.25 1.6 0 0.75 0.67 0.75 0.5 0 1.15-0.46 0.64-0.45 1.5-1.22l0.27 0.27q-0.53 0.85-1.31 1.64-0.8 0.8-1.75 1.31-0.97 0.52-2.07 0.53-1.18-0.01-1.93-0.71-0.74-0.73-0.73-2.23-0.01-0.5 0.04-0.96-1.4 1.59-2.96 2.75-1.56 1.14-2.98 1.15zm0.31-6.32q0 1.86 0.61 2.69 0.62 0.81 1.64 0.81 0.85 0 1.69-0.52 0.83-0.51 1.83-1.5 0.06-0.41 0.17-0.87l2.21-10.13q-0.46-0.56-1.08-0.77-0.63-0.2-1.13-0.21-1.5 0-3.17 1.79-1.29 1.44-2.04 3.8-0.73 2.35-0.73 4.91z"/>
						</g>
					</g>
				</g>
				<g>
					<g>
						<g>
							<path class="s2" d="m119.81 63.99q-1.71-0.01-2.79-0.92-1.06-0.94-1.06-2.83 0-1.27 0.29-2.82 0.31-1.54 0.62-3.08l2.15-10.81q0.27-1.52-1.1-1.96l-0.63-0.25 0.04-0.36 6.88-1.95 0.21 0.23-2.36 10.79q1.44-1.79 3.21-2.88 1.79-1.1 3.33-1.1 1.54 0 2.55 1.1 1 1.09 1 3.65-0.01 1.96-0.71 3.87-0.71 1.92-1.94 3.61-1.23 1.69-2.79 2.98-1.55 1.27-3.34 2-1.77 0.72-3.56 0.73zm0.29-3.19q0 0.88 0.36 1.46 0.35 0.58 1.12 0.58 1.9 0 3.59-2.19 0.68-0.91 1.27-2.31 0.58-1.39 0.91-2.98 0.33-1.58 0.34-3.02 0-1.89-0.54-2.83-0.53-0.96-1.44-0.96-0.84 0-1.77 0.66-0.92 0.67-1.98 1.84l-0.94 4.33q-0.44 2-0.69 3.36-0.23 1.35-0.23 2.06z"/>
						</g>
					</g>
				</g>
				<g>
					<g>
						<g>
							<path class="s3" d="m136.43 63.92q-1.21 0-1.95-0.75-0.75-0.76-0.75-1.81-0.01-1.33 0.95-2.25 0.98-0.92 2.23-0.92 1.21 0.01 1.96 0.77 0.75 0.78 0.75 1.88 0 1.3-0.98 2.19-0.96 0.89-2.21 0.89z"/>
						</g>
					</g>
				</g>
			</g>
		</g>
	</g>
</svg>